<svg width="176" height="20" viewBox="0 0 176 20" fill="none" xmlns="http://www.w3.org/2000/svg">
<path d="M6.264 15.18C5.274 15.18 4.374 14.91 3.564 14.37C2.754 13.83 2.109 13.053 1.629 12.039C1.149 11.025 0.909 9.804 0.909 8.376C0.909 6.948 1.152 5.727 1.638 4.713C2.124 3.699 2.781 2.922 3.609 2.382C4.443 1.836 5.376 1.563 6.408 1.563C7.248 1.563 7.959 1.71 8.541 2.004C9.129 2.292 9.606 2.667 9.972 3.129C10.344 3.585 10.614 4.071 10.782 4.587C10.95 5.097 11.034 5.577 11.034 6.027C11.034 6.045 11.034 6.063 11.034 6.081C11.034 6.099 11.034 6.117 11.034 6.135H9.54C9.54 6.117 9.54 6.099 9.54 6.081C9.54 6.063 9.54 6.045 9.54 6.027C9.54 5.667 9.477 5.307 9.351 4.947C9.231 4.581 9.042 4.251 8.784 3.957C8.526 3.657 8.199 3.417 7.803 3.237C7.413 3.057 6.948 2.967 6.408 2.967C5.682 2.967 5.019 3.165 4.419 3.561C3.825 3.957 3.348 4.557 2.988 5.361C2.634 6.159 2.457 7.164 2.457 8.376C2.457 9.306 2.556 10.113 2.754 10.797C2.952 11.475 3.225 12.036 3.573 12.48C3.921 12.924 4.326 13.254 4.788 13.47C5.256 13.686 5.76 13.794 6.3 13.794C7.014 13.794 7.599 13.671 8.055 13.425C8.517 13.179 8.874 12.873 9.126 12.507C9.378 12.135 9.54 11.769 9.612 11.409V10.014H6.363V8.727H10.998V15H9.855L9.774 13.524C9.726 13.614 9.627 13.749 9.477 13.929C9.327 14.109 9.114 14.295 8.838 14.487C8.568 14.679 8.22 14.844 7.794 14.982C7.368 15.114 6.858 15.18 6.264 15.18ZM17.0207 15.18C16.2947 15.18 15.6587 15.066 15.1127 14.838C14.5727 14.61 14.1527 14.283 13.8527 13.857C13.5527 13.425 13.4027 12.909 13.4027 12.309C13.4027 11.685 13.5647 11.166 13.8887 10.752C14.2127 10.332 14.6687 10.005 15.2567 9.771C15.8447 9.537 16.5287 9.381 17.3087 9.303C18.4847 9.183 19.3217 9.066 19.8197 8.952C20.3177 8.832 20.5667 8.64 20.5667 8.376C20.5667 8.37 20.5667 8.367 20.5667 8.367C20.5667 8.361 20.5667 8.355 20.5667 8.349C20.5667 7.797 20.3417 7.386 19.8917 7.116C19.4417 6.84 18.7907 6.702 17.9387 6.702C17.0507 6.702 16.3607 6.858 15.8687 7.17C15.3767 7.476 15.1307 7.974 15.1307 8.664H13.6187C13.6187 7.95 13.8017 7.344 14.1677 6.846C14.5337 6.342 15.0407 5.958 15.6887 5.694C16.3427 5.43 17.0957 5.298 17.9477 5.298C18.7277 5.298 19.4297 5.418 20.0537 5.658C20.6837 5.892 21.1817 6.243 21.5477 6.711C21.9197 7.173 22.1057 7.746 22.1057 8.43C22.1057 8.556 22.1057 8.682 22.1057 8.808C22.1057 8.928 22.1057 9.051 22.1057 9.177V13.2C22.1057 13.41 22.1147 13.614 22.1327 13.812C22.1507 14.01 22.1807 14.184 22.2227 14.334C22.2767 14.514 22.3367 14.661 22.4027 14.775C22.4687 14.883 22.5227 14.958 22.5647 15H21.0257C20.9957 14.97 20.9507 14.901 20.8907 14.793C20.8307 14.679 20.7737 14.547 20.7197 14.397C20.6777 14.277 20.6447 14.127 20.6207 13.947C20.5967 13.761 20.5847 13.569 20.5847 13.371L20.8367 13.542C20.6507 13.866 20.3777 14.151 20.0177 14.397C19.6637 14.643 19.2347 14.835 18.7307 14.973C18.2267 15.111 17.6567 15.18 17.0207 15.18ZM17.2637 13.803C17.8817 13.803 18.4397 13.71 18.9377 13.524C19.4357 13.332 19.8317 13.05 20.1257 12.678C20.4197 12.306 20.5667 11.844 20.5667 11.292V9.393L20.9087 9.969C20.5247 10.119 20.0447 10.242 19.4687 10.338C18.8987 10.428 18.3017 10.503 17.6777 10.563C16.7717 10.647 16.0877 10.806 15.6257 11.04C15.1697 11.274 14.9417 11.667 14.9417 12.219C14.9417 12.741 15.1307 13.137 15.5087 13.407C15.8867 13.671 16.4717 13.803 17.2637 13.803ZM24.6504 15V5.442H26.1804V8.376L25.6764 8.196C25.7124 7.842 25.8024 7.494 25.9464 7.152C26.0904 6.804 26.2884 6.492 26.5404 6.216C26.7984 5.934 27.1194 5.712 27.5034 5.55C27.8874 5.382 28.3374 5.298 28.8534 5.298C29.2374 5.298 29.5494 5.331 29.7894 5.397C30.0354 5.457 30.1884 5.505 30.2484 5.541L29.8524 7.044C29.7924 7.002 29.6694 6.948 29.4834 6.882C29.3034 6.816 29.0454 6.783 28.7094 6.783C28.2114 6.783 27.7974 6.873 27.4674 7.053C27.1434 7.233 26.8854 7.473 26.6934 7.773C26.5074 8.067 26.3754 8.388 26.2974 8.736C26.2194 9.084 26.1804 9.429 26.1804 9.771V15H24.6504ZM35.0558 15.18C34.3298 15.18 33.6938 15.066 33.1478 14.838C32.6078 14.61 32.1878 14.283 31.8878 13.857C31.5878 13.425 31.4378 12.909 31.4378 12.309C31.4378 11.685 31.5998 11.166 31.9238 10.752C32.2478 10.332 32.7038 10.005 33.2918 9.771C33.8798 9.537 34.5638 9.381 35.3438 9.303C36.5198 9.183 37.3568 9.066 37.8548 8.952C38.3528 8.832 38.6018 8.64 38.6018 8.376C38.6018 8.37 38.6018 8.367 38.6018 8.367C38.6018 8.361 38.6018 8.355 38.6018 8.349C38.6018 7.797 38.3768 7.386 37.9268 7.116C37.4768 6.84 36.8258 6.702 35.9738 6.702C35.0858 6.702 34.3958 6.858 33.9038 7.17C33.4118 7.476 33.1658 7.974 33.1658 8.664H31.6538C31.6538 7.95 31.8368 7.344 32.2028 6.846C32.5688 6.342 33.0758 5.958 33.7238 5.694C34.3778 5.43 35.1308 5.298 35.9828 5.298C36.7628 5.298 37.4648 5.418 38.0888 5.658C38.7188 5.892 39.2168 6.243 39.5828 6.711C39.9548 7.173 40.1408 7.746 40.1408 8.43C40.1408 8.556 40.1408 8.682 40.1408 8.808C40.1408 8.928 40.1408 9.051 40.1408 9.177V13.2C40.1408 13.41 40.1498 13.614 40.1678 13.812C40.1858 14.01 40.2158 14.184 40.2578 14.334C40.3118 14.514 40.3718 14.661 40.4378 14.775C40.5038 14.883 40.5578 14.958 40.5998 15H39.0608C39.0308 14.97 38.9858 14.901 38.9258 14.793C38.8658 14.679 38.8088 14.547 38.7548 14.397C38.7128 14.277 38.6798 14.127 38.6558 13.947C38.6318 13.761 38.6198 13.569 38.6198 13.371L38.8718 13.542C38.6858 13.866 38.4128 14.151 38.0528 14.397C37.6988 14.643 37.2698 14.835 36.7658 14.973C36.2618 15.111 35.6918 15.18 35.0558 15.18ZM35.2988 13.803C35.9168 13.803 36.4748 13.71 36.9728 13.524C37.4708 13.332 37.8668 13.05 38.1608 12.678C38.4548 12.306 38.6018 11.844 38.6018 11.292V9.393L38.9438 9.969C38.5598 10.119 38.0798 10.242 37.5038 10.338C36.9338 10.428 36.3368 10.503 35.7128 10.563C34.8068 10.647 34.1228 10.806 33.6608 11.04C33.2048 11.274 32.9768 11.667 32.9768 12.219C32.9768 12.741 33.1658 13.137 33.5438 13.407C33.9218 13.671 34.5068 13.803 35.2988 13.803ZM48.7876 14.415C49.3036 14.457 49.7566 14.553 50.1466 14.703C50.5426 14.847 50.8516 15.06 51.0736 15.342C51.2956 15.63 51.4066 16.005 51.4066 16.467C51.4066 16.977 51.2326 17.427 50.8846 17.817C50.5366 18.213 50.0086 18.522 49.3006 18.744C48.5926 18.966 47.7016 19.077 46.6276 19.077C45.1096 19.077 43.9636 18.855 43.1896 18.411C42.4156 17.973 42.0286 17.373 42.0286 16.611C42.0286 16.371 42.0556 16.158 42.1096 15.972C42.1696 15.792 42.2356 15.645 42.3076 15.531L43.7656 15.747C43.7176 15.813 43.6696 15.912 43.6216 16.044C43.5796 16.182 43.5586 16.341 43.5586 16.521C43.5586 17.001 43.8316 17.337 44.3776 17.529C44.9236 17.727 45.6976 17.826 46.6996 17.826C47.4496 17.826 48.0646 17.775 48.5446 17.673C49.0246 17.571 49.3816 17.424 49.6156 17.232C49.8496 17.04 49.9666 16.815 49.9666 16.557C49.9666 16.167 49.8016 15.924 49.4716 15.828C49.1476 15.738 48.7456 15.675 48.2656 15.639L44.6296 15.369C44.0236 15.321 43.5286 15.135 43.1446 14.811C42.7666 14.481 42.5776 14.082 42.5776 13.614C42.5776 13.326 42.6466 13.053 42.7846 12.795C42.9286 12.537 43.0936 12.321 43.2796 12.147C43.4716 11.967 43.6426 11.859 43.7926 11.823L44.9986 12.372C44.8486 12.396 44.6626 12.501 44.4406 12.687C44.2246 12.867 44.1166 13.08 44.1166 13.326C44.1166 13.548 44.2036 13.731 44.3776 13.875C44.5516 14.013 44.8966 14.103 45.4126 14.145L48.7876 14.415ZM50.1106 5.442H51.5506L50.9566 9.204C50.8486 9.906 50.6236 10.542 50.2816 11.112C49.9396 11.676 49.4716 12.126 48.8776 12.462C48.2896 12.792 47.5606 12.957 46.6906 12.957C45.7846 12.957 45.0106 12.792 44.3686 12.462C43.7266 12.132 43.2346 11.682 42.8926 11.112C42.5506 10.536 42.3796 9.888 42.3796 9.168C42.3796 8.436 42.5566 7.779 42.9106 7.197C43.2706 6.609 43.7686 6.147 44.4046 5.811C45.0406 5.469 45.7696 5.298 46.5916 5.298C47.3296 5.298 47.9746 5.427 48.5266 5.685C49.0786 5.937 49.5136 6.255 49.8316 6.639C50.1556 7.023 50.3356 7.41 50.3716 7.8L49.7956 7.836L50.1106 5.442ZM46.6816 11.589C47.2636 11.589 47.7616 11.493 48.1756 11.301C48.5956 11.109 48.9166 10.83 49.1386 10.464C49.3666 10.098 49.4806 9.654 49.4806 9.132C49.4806 8.628 49.3666 8.193 49.1386 7.827C48.9166 7.455 48.5956 7.17 48.1756 6.972C47.7616 6.768 47.2666 6.666 46.6906 6.666C46.1386 6.666 45.6496 6.771 45.2236 6.981C44.8036 7.185 44.4736 7.473 44.2336 7.845C43.9996 8.217 43.8826 8.655 43.8826 9.159C43.8826 9.669 43.9936 10.107 44.2156 10.473C44.4436 10.833 44.7646 11.109 45.1786 11.301C45.5986 11.493 46.0996 11.589 46.6816 11.589ZM53.6923 10.833V9.465H61.0813L60.8113 9.915C60.8113 9.879 60.8113 9.846 60.8113 9.816C60.8113 9.78 60.8113 9.747 60.8113 9.717C60.8113 9.165 60.6943 8.661 60.4603 8.205C60.2323 7.743 59.8903 7.374 59.4343 7.098C58.9783 6.822 58.4143 6.684 57.7423 6.684C57.0643 6.684 56.4673 6.828 55.9513 7.116C55.4353 7.404 55.0333 7.812 54.7453 8.34C54.4573 8.862 54.3133 9.486 54.3133 10.212C54.3133 10.95 54.4513 11.586 54.7273 12.12C55.0093 12.654 55.4083 13.065 55.9243 13.353C56.4403 13.641 57.0523 13.785 57.7603 13.785C58.2643 13.785 58.7023 13.734 59.0743 13.632C59.4463 13.524 59.7523 13.383 59.9923 13.209C60.2383 13.029 60.4243 12.834 60.5503 12.624C60.6763 12.414 60.7513 12.204 60.7753 11.994H62.3053C62.2753 12.378 62.1553 12.759 61.9453 13.137C61.7353 13.515 61.4383 13.86 61.0543 14.172C60.6703 14.478 60.1993 14.724 59.6413 14.91C59.0833 15.096 58.4413 15.189 57.7153 15.189C56.7553 15.189 55.9093 14.979 55.1773 14.559C54.4453 14.139 53.8693 13.557 53.4493 12.813C53.0353 12.069 52.8283 11.214 52.8283 10.248C52.8283 9.27 53.0383 8.412 53.4583 7.674C53.8783 6.93 54.4573 6.348 55.1953 5.928C55.9333 5.508 56.7763 5.298 57.7243 5.298C58.6903 5.298 59.5273 5.508 60.2353 5.928C60.9433 6.348 61.4893 6.924 61.8733 7.656C62.2573 8.382 62.4493 9.21 62.4493 10.14C62.4493 10.236 62.4463 10.362 62.4403 10.518C62.4343 10.674 62.4253 10.779 62.4133 10.833H53.6923ZM74.302 1.725C75.232 1.725 75.994 1.854 76.588 2.112C77.188 2.37 77.632 2.742 77.92 3.228C78.208 3.708 78.352 4.275 78.352 4.929C78.352 5.583 78.223 6.141 77.965 6.603C77.707 7.059 77.38 7.413 76.984 7.665C76.588 7.911 76.186 8.049 75.778 8.079C76.204 8.091 76.642 8.202 77.092 8.412C77.542 8.616 77.92 8.949 78.226 9.411C78.532 9.867 78.685 10.476 78.685 11.238C78.685 11.958 78.538 12.603 78.244 13.173C77.956 13.737 77.491 14.184 76.849 14.514C76.207 14.838 75.349 15 74.275 15H69.055V1.725H74.302ZM71.728 7.872L70.801 7.089H73.447C74.155 7.089 74.686 6.939 75.04 6.639C75.394 6.333 75.571 5.922 75.571 5.406C75.571 5.058 75.496 4.773 75.346 4.551C75.196 4.323 74.974 4.155 74.68 4.047C74.386 3.939 74.023 3.885 73.591 3.885H70.468L71.728 2.553V7.872ZM73.735 12.831C74.419 12.831 74.938 12.675 75.292 12.363C75.652 12.045 75.832 11.616 75.832 11.076C75.832 10.77 75.778 10.503 75.67 10.275C75.568 10.047 75.421 9.858 75.229 9.708C75.037 9.552 74.803 9.435 74.527 9.357C74.257 9.273 73.957 9.231 73.627 9.231H70.801L71.728 8.457V14.163L70.468 12.831H73.735ZM83.8173 15.198C83.1213 15.198 82.5003 15.087 81.9543 14.865C81.4143 14.643 80.9913 14.322 80.6853 13.902C80.3793 13.482 80.2263 12.972 80.2263 12.372C80.2263 11.694 80.4123 11.142 80.7843 10.716C81.1563 10.29 81.6483 9.966 82.2603 9.744C82.8783 9.516 83.5473 9.366 84.2673 9.294C85.3173 9.192 86.0403 9.099 86.4363 9.015C86.8383 8.931 87.0393 8.784 87.0393 8.574C87.0393 8.568 87.0393 8.562 87.0393 8.556C87.0393 8.202 86.8683 7.923 86.5263 7.719C86.1903 7.515 85.7193 7.413 85.1133 7.413C84.4713 7.413 83.9793 7.53 83.6373 7.764C83.3013 7.992 83.1333 8.343 83.1333 8.817H80.3883C80.3883 8.049 80.5953 7.401 81.0093 6.873C81.4293 6.345 81.9963 5.946 82.7103 5.676C83.4243 5.4 84.2313 5.262 85.1313 5.262C85.9713 5.262 86.7483 5.391 87.4623 5.649C88.1763 5.901 88.7493 6.282 89.1813 6.792C89.6193 7.302 89.8383 7.95 89.8383 8.736C89.8383 8.862 89.8383 8.988 89.8383 9.114C89.8383 9.234 89.8383 9.357 89.8383 9.483V12.867C89.8383 13.113 89.8443 13.35 89.8563 13.578C89.8743 13.8 89.9103 14.004 89.9643 14.19C90.0243 14.4 90.0993 14.574 90.1893 14.712C90.2793 14.85 90.3543 14.946 90.4143 15H87.6693C87.6273 14.958 87.5613 14.871 87.4713 14.739C87.3873 14.607 87.3153 14.454 87.2553 14.28C87.1833 14.07 87.1293 13.86 87.0933 13.65C87.0633 13.434 87.0483 13.182 87.0483 12.894L87.6243 13.29C87.4563 13.686 87.1833 14.028 86.8053 14.316C86.4333 14.598 85.9893 14.817 85.4733 14.973C84.9633 15.123 84.4113 15.198 83.8173 15.198ZM84.5643 13.11C85.0023 13.11 85.4103 13.032 85.7883 12.876C86.1723 12.714 86.4843 12.462 86.7243 12.12C86.9643 11.778 87.0843 11.331 87.0843 10.779V9.816L87.7773 10.491C87.3813 10.635 86.9223 10.755 86.4003 10.851C85.8843 10.941 85.3683 11.013 84.8523 11.067C84.2403 11.127 83.7813 11.232 83.4753 11.382C83.1753 11.526 83.0253 11.772 83.0253 12.12C83.0253 12.45 83.1543 12.699 83.4123 12.867C83.6703 13.029 84.0543 13.11 84.5643 13.11ZM91.88 15V5.442H94.679V8.736L94.103 8.376C94.169 7.926 94.289 7.512 94.463 7.134C94.637 6.756 94.862 6.429 95.138 6.153C95.414 5.871 95.741 5.652 96.119 5.496C96.503 5.34 96.941 5.262 97.433 5.262C97.817 5.262 98.117 5.292 98.333 5.352C98.555 5.406 98.693 5.448 98.747 5.478L98.288 7.98C98.234 7.95 98.114 7.902 97.928 7.836C97.742 7.77 97.502 7.737 97.208 7.737C96.728 7.737 96.326 7.818 96.002 7.98C95.678 8.142 95.417 8.358 95.219 8.628C95.027 8.892 94.889 9.186 94.805 9.51C94.721 9.834 94.679 10.161 94.679 10.491V15H91.88ZM105.91 15.207C105.154 15.207 104.461 15.006 103.831 14.604C103.201 14.202 102.697 13.659 102.319 12.975C101.941 12.285 101.752 11.511 101.752 10.653C101.752 10.629 101.752 10.608 101.752 10.59C101.752 10.566 101.752 10.539 101.752 10.509L102.958 10.482C102.958 10.5 102.958 10.518 102.958 10.536C102.958 10.554 102.958 10.572 102.958 10.59C102.958 11.034 103.066 11.424 103.282 11.76C103.498 12.09 103.777 12.345 104.119 12.525C104.461 12.705 104.818 12.795 105.19 12.795C105.802 12.795 106.333 12.585 106.783 12.165C107.239 11.739 107.467 11.076 107.467 10.176C107.467 9.276 107.242 8.622 106.792 8.214C106.342 7.8 105.808 7.593 105.19 7.593C104.818 7.593 104.461 7.683 104.119 7.863C103.777 8.037 103.498 8.286 103.282 8.61C103.066 8.934 102.958 9.321 102.958 9.771L101.752 9.699C101.752 8.835 101.941 8.073 102.319 7.413C102.697 6.747 103.201 6.225 103.831 5.847C104.461 5.463 105.154 5.271 105.91 5.271C106.684 5.271 107.407 5.46 108.079 5.838C108.751 6.216 109.294 6.771 109.708 7.503C110.128 8.235 110.338 9.126 110.338 10.176C110.338 11.274 110.134 12.198 109.726 12.948C109.318 13.692 108.778 14.256 108.106 14.64C107.434 15.018 106.702 15.207 105.91 15.207ZM100.159 15V0.932999H102.958V15H100.159ZM113.148 11.058V9.213H119.484L119.214 9.681C119.214 9.633 119.214 9.588 119.214 9.546C119.214 9.498 119.214 9.453 119.214 9.411C119.214 9.069 119.133 8.742 118.971 8.43C118.809 8.112 118.557 7.854 118.215 7.656C117.879 7.452 117.447 7.35 116.919 7.35C116.391 7.35 115.935 7.464 115.551 7.692C115.173 7.914 114.882 8.235 114.678 8.655C114.48 9.075 114.381 9.582 114.381 10.176C114.381 10.788 114.477 11.313 114.669 11.751C114.867 12.183 115.158 12.516 115.542 12.75C115.932 12.984 116.415 13.101 116.991 13.101C117.363 13.101 117.684 13.068 117.954 13.002C118.224 12.93 118.443 12.84 118.611 12.732C118.785 12.624 118.917 12.504 119.007 12.372C119.097 12.24 119.151 12.111 119.169 11.985H121.923C121.887 12.387 121.749 12.783 121.509 13.173C121.269 13.557 120.936 13.905 120.51 14.217C120.084 14.523 119.565 14.766 118.953 14.946C118.347 15.126 117.654 15.216 116.874 15.216C115.818 15.216 114.897 15.006 114.111 14.586C113.325 14.16 112.716 13.575 112.284 12.831C111.852 12.081 111.636 11.217 111.636 10.239C111.636 9.249 111.855 8.382 112.293 7.638C112.737 6.888 113.352 6.306 114.138 5.892C114.93 5.472 115.845 5.262 116.883 5.262C117.945 5.262 118.863 5.475 119.637 5.901C120.411 6.321 121.008 6.912 121.428 7.674C121.848 8.43 122.058 9.312 122.058 10.32C122.058 10.47 122.055 10.614 122.049 10.752C122.043 10.89 122.034 10.992 122.022 11.058H113.148ZM123.802 15V5.442H126.601V8.736L126.025 8.376C126.091 7.926 126.211 7.512 126.385 7.134C126.559 6.756 126.784 6.429 127.06 6.153C127.336 5.871 127.663 5.652 128.041 5.496C128.425 5.34 128.863 5.262 129.355 5.262C129.739 5.262 130.039 5.292 130.255 5.352C130.477 5.406 130.615 5.448 130.669 5.478L130.21 7.98C130.156 7.95 130.036 7.902 129.85 7.836C129.664 7.77 129.424 7.737 129.13 7.737C128.65 7.737 128.248 7.818 127.924 7.98C127.6 8.142 127.339 8.358 127.141 8.628C126.949 8.892 126.811 9.186 126.727 9.51C126.643 9.834 126.601 10.161 126.601 10.491V15H123.802ZM135.883 15.216C135.313 15.216 134.764 15.15 134.236 15.018C133.708 14.886 133.234 14.691 132.814 14.433C132.4 14.175 132.07 13.854 131.824 13.47C131.584 13.08 131.464 12.627 131.464 12.111C131.464 12.087 131.464 12.06 131.464 12.03C131.464 11.994 131.464 11.967 131.464 11.949H134.236C134.236 11.967 134.236 11.988 134.236 12.012C134.236 12.03 134.236 12.051 134.236 12.075C134.236 12.423 134.389 12.678 134.695 12.84C135.007 13.002 135.427 13.083 135.955 13.083C136.231 13.083 136.495 13.056 136.747 13.002C137.005 12.942 137.215 12.849 137.377 12.723C137.545 12.591 137.629 12.426 137.629 12.228C137.629 11.91 137.452 11.685 137.098 11.553C136.75 11.421 136.189 11.289 135.415 11.157C134.977 11.085 134.533 10.983 134.083 10.851C133.633 10.719 133.219 10.545 132.841 10.329C132.463 10.107 132.16 9.828 131.932 9.492C131.704 9.15 131.59 8.736 131.59 8.25C131.59 7.602 131.785 7.056 132.175 6.612C132.571 6.168 133.096 5.832 133.75 5.604C134.404 5.376 135.124 5.262 135.91 5.262C136.66 5.262 137.359 5.388 138.007 5.64C138.655 5.886 139.18 6.243 139.582 6.711C139.984 7.173 140.185 7.731 140.185 8.385C140.185 8.397 140.185 8.415 140.185 8.439C140.185 8.463 140.185 8.487 140.185 8.511H137.44C137.44 8.487 137.44 8.466 137.44 8.448C137.44 8.43 137.44 8.415 137.44 8.403C137.44 8.163 137.362 7.968 137.206 7.818C137.056 7.668 136.864 7.557 136.63 7.485C136.396 7.407 136.153 7.368 135.901 7.368C135.673 7.368 135.436 7.395 135.19 7.449C134.95 7.497 134.746 7.581 134.578 7.701C134.41 7.815 134.326 7.977 134.326 8.187C134.326 8.391 134.416 8.559 134.596 8.691C134.776 8.817 135.028 8.922 135.352 9.006C135.676 9.084 136.051 9.159 136.477 9.231C136.879 9.297 137.302 9.39 137.746 9.51C138.196 9.624 138.616 9.789 139.006 10.005C139.402 10.215 139.72 10.494 139.96 10.842C140.206 11.184 140.329 11.619 140.329 12.147C140.329 12.693 140.203 13.161 139.951 13.551C139.699 13.941 139.357 14.259 138.925 14.505C138.499 14.745 138.022 14.922 137.494 15.036C136.972 15.156 136.435 15.216 135.883 15.216ZM148.798 15V11.598C148.798 11.478 148.798 11.313 148.798 11.103C148.798 10.893 148.798 10.68 148.798 10.464C148.798 10.248 148.798 10.074 148.798 9.942C148.798 9.21 148.666 8.646 148.402 8.25C148.138 7.848 147.655 7.647 146.953 7.647C146.497 7.647 146.113 7.74 145.801 7.926C145.489 8.106 145.252 8.361 145.09 8.691C144.934 9.021 144.856 9.408 144.856 9.852L144.046 9.294C144.046 8.496 144.217 7.797 144.559 7.197C144.901 6.591 145.372 6.117 145.972 5.775C146.578 5.433 147.277 5.262 148.069 5.262C149.239 5.262 150.118 5.607 150.706 6.297C151.294 6.981 151.588 7.935 151.588 9.159C151.588 9.471 151.588 9.846 151.588 10.284C151.588 10.722 151.588 11.229 151.588 11.805V15H148.798ZM142.066 15V0.932999H144.856V15H142.066ZM158.455 15.207C157.423 15.207 156.514 14.994 155.728 14.568C154.942 14.142 154.327 13.557 153.883 12.813C153.445 12.063 153.226 11.199 153.226 10.221C153.226 9.249 153.445 8.391 153.883 7.647C154.327 6.897 154.942 6.315 155.728 5.901C156.514 5.481 157.423 5.271 158.455 5.271C159.487 5.271 160.396 5.481 161.182 5.901C161.968 6.315 162.58 6.897 163.018 7.647C163.462 8.391 163.684 9.249 163.684 10.221C163.684 11.199 163.462 12.063 163.018 12.813C162.58 13.557 161.968 14.142 161.182 14.568C160.396 14.994 159.487 15.207 158.455 15.207ZM158.455 12.993C158.941 12.993 159.364 12.879 159.724 12.651C160.084 12.423 160.363 12.102 160.561 11.688C160.759 11.268 160.858 10.779 160.858 10.221C160.858 9.663 160.759 9.18 160.561 8.772C160.363 8.358 160.084 8.04 159.724 7.818C159.364 7.596 158.941 7.485 158.455 7.485C157.975 7.485 157.552 7.596 157.186 7.818C156.826 8.04 156.547 8.358 156.349 8.772C156.151 9.18 156.052 9.663 156.052 10.221C156.052 10.779 156.151 11.268 156.349 11.688C156.547 12.102 156.826 12.423 157.186 12.651C157.552 12.879 157.975 12.993 158.455 12.993ZM165.427 18.933V5.442H168.226V18.933H165.427ZM171.178 15.216C170.422 15.216 169.729 15.015 169.099 14.613C168.469 14.205 167.965 13.659 167.587 12.975C167.209 12.285 167.02 11.511 167.02 10.653C167.02 10.629 167.02 10.608 167.02 10.59C167.02 10.566 167.02 10.539 167.02 10.509L168.226 10.482C168.226 10.5 168.226 10.518 168.226 10.536C168.226 10.554 168.226 10.572 168.226 10.59C168.226 11.034 168.334 11.424 168.55 11.76C168.766 12.09 169.045 12.345 169.387 12.525C169.729 12.705 170.086 12.795 170.458 12.795C171.07 12.795 171.601 12.585 172.051 12.165C172.507 11.739 172.735 11.076 172.735 10.176C172.735 9.276 172.51 8.622 172.06 8.214C171.61 7.8 171.076 7.593 170.458 7.593C170.086 7.593 169.729 7.683 169.387 7.863C169.045 8.037 168.766 8.286 168.55 8.61C168.334 8.934 168.226 9.321 168.226 9.771L167.02 9.699C167.02 8.835 167.209 8.073 167.587 7.413C167.965 6.747 168.469 6.222 169.099 5.838C169.729 5.454 170.422 5.262 171.178 5.262C171.952 5.262 172.675 5.454 173.347 5.838C174.019 6.216 174.562 6.771 174.976 7.503C175.396 8.235 175.606 9.126 175.606 10.176C175.606 11.274 175.402 12.198 174.994 12.948C174.586 13.698 174.046 14.265 173.374 14.649C172.702 15.027 171.97 15.216 171.178 15.216Z" fill="white"/>
</svg>
